<?xml version="1.0" encoding="UTF-8"?>
<svg width="172px" height="25px" viewBox="0 0 172 25" version="1.1" xmlns="http://www.w3.org/2000/svg" xmlns:xlink="http://www.w3.org/1999/xlink">
    <title>编组 3备份 2</title>
    <defs>
        <linearGradient x1="18%" y1="9.06364485%" x2="77.3146837%" y2="87.5352436%" id="linearGradient-1">
            <stop stop-color="#5DE4FF" offset="0%"></stop>
            <stop stop-color="#3B54F1" offset="100%"></stop>
        </linearGradient>
        <path d="M18.9632025,2.26127383 C20.8201327,4.72550354 20.3278193,8.22849583 17.8635896,10.0854261 L14.648,12.507 L17.8058906,14.9747843 C20.2373371,16.8744385 20.6684399,20.3854894 18.7687857,22.8169359 C16.8691315,25.2483823 13.3580807,25.6794852 10.9266342,23.779831 L2.06039766,16.8527678 C0.174281574,15.3791724 -0.508151811,12.9359385 0.167327457,10.7791683 C0.49755548,9.68160203 1.16769775,8.67561395 2.15327009,7.93293192 L11.1390502,1.16166094 C13.6032799,-0.695269337 17.1062722,-0.202955876 18.9632025,2.26127383 Z M12.061,14.456 L8.87780948,16.8566971 C8.5673989,17.0906082 8.24050568,17.2872426 7.90249619,17.4473543 L12.8442594,21.307725 C13.9140959,22.1435728 15.4589582,21.9538876 16.2948061,20.8840511 C17.0943127,19.8607293 16.9555244,18.4027902 16.0056727,17.5464516 L15.8711322,17.4335045 L12.061,14.456 Z M3.57148218,10.943501 C3.3568419,11.2182281 3.20982824,11.5242797 3.12797935,11.8416057 C2.97235444,12.522753 3.10734693,13.2656614 3.56099354,13.8676707 C4.34251897,14.90479 5.78670106,15.1480732 6.85970028,14.4522237 L7.00362054,14.3515004 L9.509,12.462 L7.02202884,10.5198272 C5.95219239,9.68397934 4.40733002,9.87366459 3.57148218,10.943501 Z M13.1571594,3.56613432 L13.0132391,3.66685761 L7.99300439,7.44919057 C8.32167541,7.61346213 8.6389225,7.81276395 8.93965404,8.04772118 L12.096,10.514 L15.9720364,7.59331428 C17.0562975,6.77626496 17.2729154,5.23494835 16.4558661,4.15068728 C15.6743407,3.113568 14.2301586,2.87028479 13.1571594,3.56613432 Z" id="path-2"></path>
    </defs>
    <g id="logo设计" stroke="none" stroke-width="1" fill="none" fill-rule="evenodd">
        <g id="KS-logo首页效果" transform="translate(-19.000000, -11.000000)">
            <g id="编组-3备份-4" transform="translate(19.000000, 11.000000)">
                <g id="编组-2" transform="translate(1.000000, 0.000000)">
                    <g id="编组-3" transform="translate(31.224000, 7.994000)" fill="#05133F" fill-rule="nonzero">
                        <g id="编组-33">
                            <g id="Streaming" transform="translate(51.388000, 0.000000)">
                                <path d="M0.558,12.006 L0.558,9.864 L6.048,9.864 C6.924,9.864 7.506,9.78 7.794,9.612 C8.214,9.36 8.424,8.982 8.424,8.478 C8.424,7.89 8.178,7.464 7.686,7.2 C7.41,7.044 6.966,6.966 6.354,6.966 L4.122,6.966 C2.766,6.966 1.788,6.72 1.188,6.228 C0.816,5.916 0.525,5.526 0.315,5.058 C0.105,4.59 0,4.086 0,3.546 C0,2.706 0.246,1.938 0.738,1.242 C1.218,0.57 1.986,0.174 3.042,0.054 C3.402,0.018 3.936,0 4.644,0 L10.602,0 L10.602,2.142 L5.22,2.142 C4.416,2.154 3.882,2.19 3.618,2.25 C3.078,2.382 2.808,2.79 2.808,3.474 C2.808,4.05 3.036,4.434 3.492,4.626 C3.792,4.77 4.296,4.842 5.004,4.842 L6.93,4.842 C7.914,4.842 8.646,4.926 9.126,5.094 C9.978,5.382 10.566,5.886 10.89,6.606 C11.142,7.182 11.268,7.8 11.268,8.46 C11.268,9.192 11.1,9.846 10.764,10.422 C10.296,11.238 9.594,11.73 8.658,11.898 C8.202,11.97 7.512,12.006 6.588,12.006 L0.558,12.006 Z" id="路径"></path>
                                <path d="M13.716,3.24 L13.716,0 L16.128,0 L16.128,3.24 L18.36,3.24 L18.36,5.112 L16.128,5.112 L16.128,8.298 C16.128,9.042 16.194,9.51 16.326,9.702 C16.53,9.99 16.89,10.134 17.406,10.134 L18.36,10.134 L18.36,12.006 L16.614,12.006 C15.57,12.006 14.826,11.754 14.382,11.25 C13.938,10.746 13.716,9.9 13.716,8.712 L13.716,5.112 L12.186,5.112 L12.186,3.24 L13.716,3.24 Z" id="路径"></path>
                                <path d="M19.998,3.24 L23.562,3.24 C24.294,3.24 24.861,3.291 25.263,3.393 C25.665,3.495 25.998,3.666 26.262,3.906 C26.526,4.146 26.712,4.446 26.82,4.806 C26.928,5.166 26.982,5.682 26.982,6.354 L26.982,7.2 L24.66,7.2 L24.66,6.732 C24.66,6.108 24.552,5.682 24.336,5.454 C24.12,5.226 23.706,5.112 23.094,5.112 L22.41,5.112 L22.41,12.006 L19.998,12.006 L19.998,3.24 Z" id="路径"></path>
                                <path d="M35.586,6.678 L35.586,8.55 L30.51,8.55 C30.558,9.126 30.744,9.534 31.068,9.774 C31.392,10.014 31.92,10.134 32.652,10.134 L35.586,10.134 L35.586,12.006 L32.382,12.006 C31.686,12.006 31.119,11.943 30.681,11.817 C30.243,11.691 29.832,11.484 29.448,11.196 C28.38,10.368 27.846,9.138 27.846,7.506 C27.846,6.45 28.128,5.526 28.692,4.734 C29.076,4.194 29.538,3.81 30.078,3.582 C30.618,3.354 31.326,3.24 32.202,3.24 L35.586,3.24 L35.586,5.112 L32.382,5.112 C31.722,5.112 31.26,5.223 30.996,5.445 C30.732,5.667 30.57,6.078 30.51,6.678 L35.586,6.678 Z" id="路径"></path>
                                <path d="M43.596,6.678 C43.596,6.066 43.473,5.652 43.227,5.436 C42.981,5.22 42.492,5.112 41.76,5.112 L37.692,5.112 L37.692,3.24 L41.76,3.24 C42.492,3.24 42.996,3.255 43.272,3.285 C43.548,3.315 43.83,3.372 44.118,3.456 C45.45,3.96 46.08,5.166 46.008,7.074 L46.008,12.006 L40.932,12.006 C40.02,12.006 39.39,11.979 39.042,11.925 C38.694,11.871 38.388,11.76 38.124,11.592 C37.416,11.112 37.062,10.386 37.062,9.414 C37.062,8.826 37.203,8.301 37.485,7.839 C37.767,7.377 38.142,7.062 38.61,6.894 C39.018,6.75 39.696,6.678 40.644,6.678 L43.596,6.678 Z M43.596,8.55 L40.824,8.55 L40.41,8.55 C40.134,8.55 39.915,8.622 39.753,8.766 C39.591,8.91 39.51,9.108 39.51,9.36 C39.51,9.636 39.609,9.834 39.807,9.954 C40.005,10.074 40.344,10.134 40.824,10.134 L43.596,10.134 L43.596,8.55 Z" id="形状"></path>
                                <path d="M48.258,3.24 L57.114,3.24 C57.918,3.24 58.53,3.3 58.95,3.42 C59.37,3.54 59.724,3.75 60.012,4.05 C60.54,4.626 60.804,5.418 60.804,6.426 L60.804,12.006 L58.392,12.006 L58.392,6.804 C58.392,6.384 58.374,6.09 58.338,5.922 C58.302,5.754 58.218,5.604 58.086,5.472 C57.834,5.232 57.456,5.112 56.952,5.112 L55.674,5.112 L55.674,12.006 L53.262,12.006 L53.262,5.112 L50.67,5.112 L50.67,12.006 L48.258,12.006 L48.258,3.24 Z" id="路径"></path>
                                <path d="M63.054,3.24 L65.466,3.24 L65.466,12.006 L63.054,12.006 L63.054,3.24 Z M63.054,2.34 L63.054,0 L65.466,0 L65.466,2.34 L63.054,2.34 Z" id="形状"></path>
                                <path d="M67.842,3.24 L72.486,3.24 C73.182,3.24 73.713,3.291 74.079,3.393 C74.445,3.495 74.778,3.678 75.078,3.942 C75.69,4.506 75.996,5.394 75.996,6.606 L75.996,12.006 L73.584,12.006 L73.584,6.336 C73.584,5.904 73.488,5.592 73.296,5.4 C73.104,5.208 72.786,5.112 72.342,5.112 L70.254,5.112 L70.254,12.006 L67.842,12.006 L67.842,3.24 Z" id="路径"></path>
                                <path d="M86.652,3.24 L86.652,11.952 C86.652,12.444 86.595,12.882 86.481,13.266 C86.367,13.65 86.202,13.974 85.986,14.238 C85.71,14.574 85.377,14.805 84.987,14.931 C84.597,15.057 84.03,15.12 83.286,15.12 L78.48,15.12 L78.48,13.248 L82.962,13.248 C83.49,13.248 83.835,13.167 83.997,13.005 C84.159,12.843 84.24,12.51 84.24,12.006 L82.026,12.006 C81.318,12.006 80.733,11.931 80.271,11.781 C79.809,11.631 79.392,11.382 79.02,11.034 C78.144,10.206 77.706,9.066 77.706,7.614 C77.706,5.958 78.24,4.752 79.308,3.996 C79.692,3.72 80.097,3.525 80.523,3.411 C80.949,3.297 81.492,3.24 82.152,3.24 L86.652,3.24 Z M84.24,5.112 L82.242,5.112 C80.85,5.112 80.154,5.952 80.154,7.632 C80.154,8.448 80.343,9.069 80.721,9.495 C81.099,9.921 81.648,10.134 82.368,10.134 L84.24,10.134 L84.24,5.112 Z" id="形状"></path>
                            </g>
                            <g id="Know">
                                <path d="M2.556,0 L2.556,12.006 L0,12.006 L0,0 L2.556,0 Z M2.646,5.94 L7.236,0 L10.602,0 L5.58,5.94 L10.368,12.006 L7.002,12.006 L2.646,5.94 Z" id="形状"></path>
                                <path d="M11.808,3.24 L16.452,3.24 C17.148,3.24 17.679,3.291 18.045,3.393 C18.411,3.495 18.744,3.678 19.044,3.942 C19.656,4.506 19.962,5.394 19.962,6.606 L19.962,12.006 L17.55,12.006 L17.55,6.336 C17.55,5.904 17.454,5.592 17.262,5.4 C17.07,5.208 16.752,5.112 16.308,5.112 L14.22,5.112 L14.22,12.006 L11.808,12.006 L11.808,3.24 Z" id="路径"></path>
                                <path d="M26.262,3.114 C27.882,3.114 29.076,3.582 29.844,4.518 C30.552,5.37 30.906,6.444 30.906,7.74 C30.906,9.108 30.462,10.2 29.574,11.016 C28.758,11.76 27.642,12.132 26.226,12.132 C24.762,12.132 23.616,11.712 22.788,10.872 C22.02,10.116 21.636,9.012 21.636,7.56 C21.636,6.336 22.002,5.316 22.734,4.5 C23.55,3.588 24.726,3.126 26.262,3.114 Z M26.28,4.95 C24.828,4.95 24.102,5.85 24.102,7.65 C24.102,8.382 24.222,8.94 24.462,9.324 C24.858,9.972 25.47,10.296 26.298,10.296 C27.726,10.296 28.44,9.402 28.44,7.614 C28.44,5.862 27.72,4.974 26.28,4.95 Z" id="形状"></path>
                                <path d="M37.71,10.134 L37.71,3.24 L40.122,3.24 L40.122,10.134 L42.714,10.134 L42.714,3.24 L45.108,3.24 L45.108,12.006 L36.252,12.006 C35.448,12.006 34.836,11.946 34.416,11.826 C33.996,11.706 33.648,11.496 33.372,11.196 C32.844,10.62 32.58,9.828 32.58,8.82 L32.58,3.24 L34.974,3.24 L34.974,8.442 C34.974,8.862 34.995,9.156 35.037,9.324 C35.079,9.492 35.16,9.642 35.28,9.774 C35.532,10.014 35.91,10.134 36.414,10.134 L37.71,10.134 Z" id="路径"></path>
                            </g>
                        </g>
                    </g>
                    <g id="路径-2">
                        <mask id="mask-3" fill="white">
                            <use xlink:href="#path-2"></use>
                        </mask>
                        <use id="形状结合" fill="url(#linearGradient-1)" xlink:href="#path-2"></use>
                        <polygon fill="#207CE8" mask="url(#mask-3)" points="11.8560508 9.26438091 8.12064506 12.1082324 9.03848789 12.8836477 13.3310743 9.59233676"></polygon>
                        <path d="M1.87896876,16.6305949 C3.54744538,18.0829332 5.92827203,18.4270193 7.93831951,17.5106292 L9.23129784,18.5203018 C8.44943334,19.2235722 7.16808691,19.6340737 5.7530604,19.5361162 C5.60706446,19.5260092 5.46323862,19.5107383 5.32194744,19.4905935 L2.08972498,16.9650981 C2.02162556,16.911893 1.9550742,16.8574409 1.89007797,16.8017992 L1.87873408,16.6308398 L1.87873408,16.6308398 Z" id="形状结合" fill="#2C65EB" mask="url(#mask-3)" transform="translate(5.545884, 18.061912) rotate(-2.000000) translate(-5.545884, -18.061912) "></path>
                    </g>
                </g>
            </g>
        </g>
    </g>
</svg>